<!-- Copyright 2022-2023 Lexikos, used with permission under GNU GPLv3 -->
<!-- https://github.com/AutoHotkey/AutoHotkey/commit/446829bc730aa002635d3d36bfd17e892b6981c0 -->
<!-- https://github.com/AutoHotkey/AutoHotkey/blob/alpha/source/resources/icons.svg -->
<!-- Created with Inkscape (http://www.inkscape.org/) -->
<svg
  width="64"
  height="64"
  viewBox="-3 -1.4 18.933333 21.933333"
  version="1.1"
  xml:space="preserve"
  xmlns="http://www.w3.org/2000/svg"
  xmlns:svg="http://www.w3.org/2000/svg">
  <g>
    <path
      style="display:inline;fill:#448e3a;stroke-width:0.264583"
      d="M 5.291667,0 C 2.608109,0 0,2.6081092 0,5.2916666 V 14.2875 c 0,1.418318 1.278675,2.645833 2.645833,2.645833 h 8.995833 c 2.683548,10e-7 5.291667,-2.608119 5.291667,-5.291667 V 2.6458333 C 16.933333,1.3297946 15.718548,0 14.2875,0 Z M 4.864819,2.6458333 c 0.412453,0.00304 0.691431,0.091894 0.691431,0.6273519 v 9.4418008 c 0,0.778847 -0.590022,1.5875 -1.322917,1.5875 -0.732894,0 -1.322916,0.166481 -1.322916,-0.612366 V 4.2483194 c 0,-0.7788475 0.590022,-1.5875 1.322916,-1.5875 0.22903,0 0.444008,-0.016366 0.631486,-0.014986 z m 7.9375,0 c 0.412453,0.00304 0.691431,0.091894 0.691431,0.6273519 v 9.4418008 c 0,0.778847 -0.590023,1.5875 -1.322917,1.5875 -0.732894,0 -1.322917,0.166481 -1.322917,-0.612366 V 4.2483194 c 0,-0.7788476 0.590023,-1.5875 1.322917,-1.5875 0.22903,0 0.444007,-0.016366 0.631486,-0.014986 z" /><path
      style="display:inline;fill:#448e3a;stroke-width:0.264583"
      d="M 5.2916666,0 C 2.6081092,0 0,2.6081092 0,5.2916666 V 14.2875 c 0,1.418318 1.2786746,2.645833 2.6458333,2.645833 h 8.9958327 c 2.683548,10e-7 5.291667,-2.608119 5.291667,-5.291667 V 2.6458333 C 16.933333,1.3297946 15.718548,0 14.2875,0 Z M 4.8648192,2.6608194 c 0.4124526,0.00304 0.6914307,0.091894 0.6914307,0.6273519 v 4.378544 L 10.847916,6.9453124 V 4.2633056 c 0,-0.7788476 0.590023,-1.5875 1.322917,-1.5875 0.732895,0 1.322917,-0.1664819 1.322917,0.6123657 v 9.4418007 c 0,0.778847 -0.590022,1.5875 -1.322917,1.5875 -0.732894,0 -1.322917,0.166482 -1.322917,-0.612366 V 9.5911456 L 5.5562499,10.312549 v 2.417423 c 0,0.778847 -0.5900224,1.5875 -1.3229167,1.5875 -0.7328952,0 -1.3229166,0.166482 -1.3229166,-0.612366 V 4.2633056 c 0,-0.7788475 0.5900214,-1.5875 1.3229166,-1.5875 0.2290288,0 0.4440072,-0.016366 0.631486,-0.014986 z" /><path
      style="display:inline;fill:#448e3a;stroke-width:0.264583"
      d="M 5.2916666,0 H 14.2875 c 1.43105,0 2.64583,1.3297933 2.64583,2.6458333 v 8.9958327 c 0,2.68355 -2.608114,5.291668 -5.291664,5.291667 l -8.9958327,-3e-6 C 1.2786733,16.93333 0,15.70582 0,14.2875 V 5.2916666 C 0,2.6081066 2.6081066,0 5.2916666,0 Z"
      />
  </g>
  <g style="display:inline">
    <path
      style="display:inline;fill:#8cf287;stroke-width:0.293683"
      d="m 4.2333333,2.660819 c 0.7328958,0 1.3229166,-0.1667343 1.3229166,0.612115 v 9.442052 c 0,0.778849 -0.5900208,1.5875 -1.3229166,1.5875 -0.7328958,0 -1.3229166,0.166734 -1.3229166,-0.612115 V 4.2483189 c 0,-0.7788491 0.5900208,-1.5874999 1.3229166,-1.5874999 z"
    />
    <path
      style="display:inline;fill:#8cf287;stroke-width:0.293683"
      d="m 12.170833,2.660819 c 0.732896,0 1.322916,-0.1667342 1.322916,0.612115 v 9.442052 c 0,0.778849 -0.59002,1.5875 -1.322916,1.5875 -0.732896,0 -1.322917,0.166734 -1.322917,-0.612115 V 4.2483189 c 0,-0.7788492 0.590021,-1.5874999 1.322917,-1.5874999 z"
    />
    <path
      style="display:inline;fill:#8cf287;stroke-width:0.283219"
      d="M 5.2916667,7.6879025 11.1125,6.8941523 V 9.5399855 L 5.2916666,10.333736 Z"
    />
  </g>
</svg>
