<?xml version="1.0" encoding="iso-8859-1"?>
<!-- Generator: Adobe Illustrator 19.0.0, SVG Export Plug-In . SVG Version: 6.00 Build 0)  -->
<svg version="1.1" id="Capa_1" xmlns="http://www.w3.org/2000/svg" xmlns:xlink="http://www.w3.org/1999/xlink" x="0px" y="0px"
	 viewBox="0 0 512 512" style="enable-background:new 0 0 512 512;" xml:space="preserve">
<path style="fill:#495A79;" d="M490.101,76.8L435.2,21.899c-11.7-11.7-26.7-19.2-43.2-21.301C388.7,0.3,385.401,0,382.099,0H45
	C20.099,0,0,20.099,0,45v421c0,24.899,20.099,45,45,45h422c24.901,0,45-20.101,45-45V129.899C512,109.799,504.2,90.899,490.101,76.8
	z"/>
<path style="fill:#42516D;" d="M512,129.899V466c0,24.899-20.099,45-45,45H256V0h126.099C385.4,0,388.7,0.3,392,0.599
	c16.5,2.1,31.5,9.6,43.2,21.301l54.901,54.9C504.2,90.899,512,109.799,512,129.899z"/>
<path style="fill:#5AF1FF;" d="M407,241H105c-8.284,0-15,6.714-15,15v76h332v-76C422,247.714,415.284,241,407,241z"/>
<path style="fill:#51DAE6;" d="M407,241H256v91h166v-76C422,247.714,415.284,241,407,241z"/>
<rect x="90" y="302" style="fill:#D9E1F2;" width="332" height="210"/>
<rect x="256" y="302" style="fill:#C3CDE6;" width="166" height="210"/>
<path style="fill:#DBE2F2;" d="M391.401,0H120v165c0,8.284,6.716,15,15,15h242c8.284,0,15-6.716,15-15V0.599
	C391.766,0.365,391.635,0.234,391.401,0z"/>
<path style="fill:#CFD6E6;" d="M256,0v180h121c8.284,0,15-6.716,15-15V0.599c-0.234-0.234-0.364-0.366-0.599-0.599H256z"/>
<path style="fill:#495A79;" d="M332,150h-91V0h91V150z"/>
<rect x="256" style="fill:#42516D;" width="76" height="150"/>
<path style="fill:#949FB3;" d="M347,452H165c-8.291,0-15-6.709-15-15s6.709-15,15-15h182c8.291,0,15,6.709,15,15
	S355.291,452,347,452z"/>
<path style="fill:#8A94A8;" d="M347,422h-91v30h91c8.291,0,15-6.709,15-15S355.291,422,347,422z"/>
<path style="fill:#949FB3;" d="M347,392H165c-8.291,0-15-6.709-15-15s6.709-15,15-15h182c8.291,0,15,6.709,15,15
	S355.291,392,347,392z"/>
<path style="fill:#8A94A8;" d="M347,362h-91v30h91c8.291,0,15-6.709,15-15S355.291,362,347,362z"/>
<g>
</g>
<g>
</g>
<g>
</g>
<g>
</g>
<g>
</g>
<g>
</g>
<g>
</g>
<g>
</g>
<g>
</g>
<g>
</g>
<g>
</g>
<g>
</g>
<g>
</g>
<g>
</g>
<g>
</g>
</svg>
